<svg width="52" height="52" viewBox="0 0 52 52" fill="none" xmlns="http://www.w3.org/2000/svg">
<rect width="52" height="52" rx="15" fill="#D9D9D9"/>
<path d="M26 30C28.2091 30 30 28.2091 30 26C30 23.7909 28.2091 22 26 22C23.7909 22 22 23.7909 22 26C22 28.2091 23.7909 30 26 30Z" stroke="black" stroke-width="2" stroke-linecap="round" stroke-linejoin="round"/>
<path d="M17 30V22C17 19.2386 19.2386 17 22 17H30C32.7614 17 35 19.2386 35 22V30C35 32.7614 32.7614 35 30 35H22C19.2386 35 17 32.7614 17 30Z" stroke="black" stroke-width="2"/>
<path d="M31.5 20.5101L31.51 20.499" stroke="black" stroke-width="2" stroke-linecap="round" stroke-linejoin="round"/>
</svg>
