<svg width="1561" height="715" viewBox="0 0 1561 715" fill="none" xmlns="http://www.w3.org/2000/svg">
<path d="M1422 44L1428.51 63.3554H1449.58L1432.53 75.3177L1439.05 94.673L1422 82.7108L1404.95 94.673L1411.47 75.3177L1394.42 63.3554H1415.49L1422 44Z" fill="#E7E6E6"/>
<path d="M1532 658L1538.51 677.355H1559.58L1542.53 689.318L1549.05 708.673L1532 696.711L1514.95 708.673L1521.47 689.318L1504.42 677.355H1525.49L1532 658Z" fill="#E7E6E6"/>
<path d="M680 630L686.511 649.355H707.581L690.535 661.318L697.046 680.673L680 668.711L662.954 680.673L669.465 661.318L652.419 649.355H673.489L680 630Z" fill="#E7E6E6"/>
<path d="M567 16L573.511 35.3554H594.581L577.535 47.3177L584.046 66.673L567 54.7108L549.954 66.673L556.465 47.3177L539.419 35.3554H560.489L567 16Z" fill="#E7E6E6"/>
<rect y="16.2192" width="464.743" height="112.14" transform="rotate(-2 0 16.2192)" fill="white"/>
<rect x="4" y="257.219" width="464.743" height="119.804" transform="rotate(-2 4 257.219)" fill="white"/>
</svg>
