<svg width="22" height="18" viewBox="0 0 22 18" fill="none" xmlns="http://www.w3.org/2000/svg">
<path d="M6.39137 8.88888C6.8696 9.37426 7.57193 9.88702 8.62455 10.3549C9.80968 10.8816 10.6567 11.945 10.9165 13.1966C11.1143 13.1102 11.3074 13.0168 11.4956 12.9166C13.9957 11.5859 15.9971 8.86427 16 4.51945C15.9997 4.49003 15.9968 4.46047 15.9911 4.43111C15.9831 4.38896 15.9757 4.34679 15.9691 4.30458C15.9257 4.25925 15.8833 4.21276 15.8419 4.16511C15.7773 4.09082 15.6915 4.03823 15.5961 4.01436L6.39137 8.88888ZM6.39137 8.88888C7.91112 9.35899 9.50255 9.58022 11.1037 9.53872C13.2717 9.48251 15 7.70882 15 5.54006V4.54006C15 4.52219 14.9999 4.50432 14.9996 4.48645C14.9983 4.38805 15.0272 4.29176 15.0824 4.21051L15.0826 4.21023C15.1376 4.12916 15.2165 4.06667 15.3085 4.03154C15.4003 3.9965 15.5006 3.99049 15.5961 4.01435L6.39137 8.88888Z" stroke="black" stroke-width="8" stroke-linecap="round" stroke-linejoin="round"/>
</svg>
